<?xml version="1.0" encoding="UTF-8"?>
<!-- Generator: Adobe Illustrator 18.0.0, SVG Export Plug-In . SVG Version: 6.00 Build 0)  -->
<svg xmlns="http://www.w3.org/2000/svg" xmlns:xlink="http://www.w3.org/1999/xlink" id="Layer_1" x="0px" y="0px" width="317px" height="85px" viewBox="0 0 317 85" xml:space="preserve">
<ellipse id="XMLID_2_" fill="#6BD12A" cx="142.5" cy="62.9" rx="24.5" ry="10"></ellipse>
<g>
	<path fill="#333333" d="M35.3,33.1c2.7,0,4.4-0.8,4.4-0.8c0.2,0.2,0.5,0.8,0.5,1.6c0,2.5-1.6,4.4-5.7,4.4c-3.4,0-5.1-0.8-7.8-1.6   l-4.5,25.8c-0.6,3.3,0,4.5,0,4.5s-0.8,0.5-2.7,0.5c-3.5,0-4.2-1.5-3.5-5.2L20.3,37c0.2-1.1,0.2-1.8,0.2-1.8   c-1.5-0.3-2.1-0.5-3.9-0.5c-4.3,0-6.6,2.4-6.6,5.1c0,1.3,0.7,2.2,1.9,2.2c0.5,0,0.8-0.1,0.8-0.1s0,0.1,0,0.4c0,1.1-1.2,2.6-3.6,2.6   c-3.1,0-5-1.9-5-4.7c0-4.7,4.2-8.1,12.5-8.1C22.2,32.1,25.9,33.1,35.3,33.1z"></path>
	<path fill="#333333" d="M63.8,59.3c0.6,0,1,0.4,0.9,1.2c-0.5,2.5-3.9,7-8.3,7c-3.5,0-5.7-2.4-5.7-5.9c0-1.2,0.3-3.1,0.7-5.4   l0.9-5.2c0.4-2.3-0.1-3-1.1-3c-3,0-7.5,7-8.9,15c-0.5,3,0,4.1,0,4.1s-0.7,0.4-2.5,0.4c-3.6,0-4.1-1.4-3.5-4.7l5.2-30.1   c0.5-3,0-4.1,0-4.1s0.7-0.4,2.5-0.4c3.6,0,4.1,1.4,3.5,4.7l-3.1,17.8c1.8-3.1,5.4-6.9,9.3-6.9c3,0,4.9,1.9,4.9,4.9   c0,1-0.2,2.4-0.4,3.8l-1.1,6.7c-0.5,2.6,0.1,4.2,1.9,4.2C60.7,63.4,62.4,62,63.8,59.3z"></path>
	<path fill="#333333" d="M62.9,57.3c0-8.4,6.4-13.4,12.7-13.4c4.8,0,6.8,2.5,6.8,4.9c0,4.3-5,7.1-13.3,8.7c0.3,3.5,2.7,6.3,6.8,6.3   c5.1,0,7.9-2.5,9.2-4.5c0.6,0,0.9,0.4,0.8,1.2c-0.4,2.1-5,7-12.2,7C67.4,67.5,62.9,63.7,62.9,57.3z M69.1,55.3   c5.8-1.4,8.2-4.3,8.2-7.4c0-1-0.7-1.7-1.7-1.7C72.9,46.2,69.6,49.4,69.1,55.3z"></path>
</g>
<g>
	<path fill="#333333" d="M119.1,51.4h-9.6l-1.9,11.2c-0.6,3.3,0,4.5,0,4.5s-0.8,0.5-2.7,0.5c-3.5,0-4.2-1.5-3.5-5.2l4.4-25.4   c0.1-0.9,0.2-1.7,0.2-2.3h-0.5c-4.3,0-6.4,2.4-6.4,5.1c0,1.3,0.7,2.2,1.9,2.2c0.5,0,0.8-0.1,0.8-0.1s0,0.1,0,0.4   c0,1.1-1.2,2.6-3.6,2.6c-3.1,0-5-1.9-5-4.7c0-4.7,4.3-8.1,11.9-8.1h3.3c3.5,0,4.2,1.5,3.5,5.2l-2,11.6h9.6l2.1-11.8   c0.6-3.3,0-4.4,0-4.4s0.8-0.5,2.7-0.5c3.5,0,4.2,1.5,3.5,5.2L124,59.5c-0.5,2.7,0.5,3.9,2.1,3.9c2.3,0,4.3-2.8,5-4.1   c0.7,0,1,0.5,0.9,1.2c-0.4,2.9-4.2,7-8.6,7c-3.4,0-5.7-2.3-5.7-5.9c0-2.2,0.2-4.1,0.7-6.6L119.1,51.4z"></path>
</g>
<g>
	<path fill="#333333" d="M304.8,63.5c0,0,4.9-1.9,7.7-4.3c0.6,0,1,0.4,0.9,1.1c-0.1,0.5-0.6,1-1.6,1.7c-1.7,1.3-4.7,3-7.5,4.3   l-0.1,0.6c-1.8,11-6.2,17.1-13.2,17.1c-3.2,0-5.3-2-5.3-5c0-2.8,1.7-5.3,4-7.3c2.4-2,4.8-3.5,8.7-5.3l1-6.1   c-0.6,1.2-1.3,2.2-1.9,3.2c-2,2.7-4.1,4-6.7,4c-3.2,0-5.2-2.2-5.2-5.5c0-1.7,0.1-3.4,0.6-5.8l1.4-7.8c0.5-3,0-4.1,0-4.1   s0.7-0.4,2.5-0.4c3.6,0,4.1,1.4,3.5,4.7l-1.9,10.9c-0.5,2.7,0.2,3.9,1.6,3.9c1,0,2.3-1.3,3.5-3.2c1.8-2.8,3.7-7.1,4.7-11.9   c0.6-3,0-4.1,0-4.1s0.7-0.4,2.5-0.4c3.6,0,4.1,1.4,3.5,4.7L304.8,63.5z M297.8,69.4c-3.1,1.6-5.2,3-6.7,4.3   c-1.8,1.8-2.8,3.4-2.8,5.1c0,1.2,0.7,2.1,2.2,2.1C293.9,80.9,296.4,77,297.8,69.4z"></path>
</g>
<g>
	<path fill="#333333" d="M312.1,61.7c1.8,0,2.9,1.3,2.9,3c0,1.7-1.3,3.3-3.4,3.3c-1.7,0-2.8-1.2-2.8-2.8   C308.8,63.2,310.3,61.7,312.1,61.7z"></path>
</g>
<g id="XMLID_4_">
	<rect id="XMLID_8_" x="141" y="4.8" fill="#333333" width="2.8" height="56.9"></rect>
	<path id="XMLID_7_" fill="#333333" d="M178.5,7.4c0,0,0,6.7-9,10.8c-6.7,3.1-11.8,1.7-16.5,3.1c-5.1,1.5-8.5,4.9-8.5,4.9V5.3   c0,0,2.1-3.5,9.3-1.6c7.5,2,4.2,4.7,10.8,5.9C171.6,11,178.5,7.4,178.5,7.4z"></path>
	<circle id="XMLID_6_" fill="#333333" cx="142.4" cy="3.6" r="2.3"></circle>
</g>
<g>
	<path fill="#333333" d="M157.1,32.8c0.5-3,0-4.1,0-4.1s0.7-0.4,2.5-0.4c3.6,0,4.1,1.4,3.5,4.7l-4.6,26.3c-0.5,2.8,0.3,4.2,2,4.2   c1.9,0,4-1.6,5.2-4.1c0.6,0,1,0.4,0.9,1.2c-0.5,2.5-4.2,7-8.7,7c-3.3,0-5.5-2.1-5.5-5.9c0-0.9,0.1-2.6,0.4-4.5L157.1,32.8z"></path>
	<path fill="#333333" d="M164.8,57.3c0-8.4,6.4-13.4,12.7-13.4c4.8,0,6.8,2.5,6.8,4.9c0,4.3-5,7.1-13.3,8.7c0.3,3.5,2.7,6.3,6.8,6.3   c5.1,0,7.9-2.5,9.2-4.5c0.6,0,0.9,0.4,0.8,1.2c-0.4,2.1-5,7-12.2,7C169.3,67.5,164.8,63.7,164.8,57.3z M171,55.3   c5.8-1.4,8.2-4.3,8.2-7.4c0-1-0.7-1.7-1.7-1.7C174.8,46.2,171.5,49.4,171,55.3z"></path>
	<path fill="#333333" d="M208,40.4c0,1.9,1.1,3.8,3.3,5.1l6,3.5c4,2.4,5.5,5.2,5.5,8.5c0,5.2-4.6,10-13.2,10   c-6.5,0-10.8-3.2-10.8-7.6c0-3.4,1.9-4.9,4.2-4.9s2.9,1.2,2.9,1.2s-1.7,1.5-1.7,3.9c0,2.8,2,4.8,5.7,4.8c4.3,0,6.9-2.6,6.9-5.7   c0-2.4-1.2-4.1-4.3-5.9l-5.1-2.9c-4-2.3-5.4-5-5.4-8.4c0-5.2,4.4-10.1,12.7-10.1c6.7,0,11.2,3.4,11.2,8c0,3.3-1.7,5.2-4.6,5.2   c-2.3,0-3.1-1.2-3.1-1.2s2.4-1.3,2.4-4.8c0-2.6-1.8-4.7-5.9-4.7C210.8,34.7,208,37,208,40.4z"></path>
	<path fill="#333333" d="M230.2,43.9l0.5-2.6c0.6-3,0-4.1,0-4.1s0.7-0.4,2.5-0.4c3.6,0,4.1,1.4,3.5,4.7l-0.4,2.4h4.7   c0,0,0.3,0.4,0.3,1c0,0.8-0.6,1.4-1.6,1.4h-3.8l-2.3,13c-0.5,2.6,0.5,4.2,2.7,4.2c2.7,0,4.6-2.1,5.7-4.1c0.6,0,1,0.4,0.9,1.2   c-0.7,2.9-4.5,7-9,7c-3.5,0-6.2-2.5-6.2-6.2c0-1.1,0.1-2.6,0.5-5.1l1.7-10h-3.1c0,0-0.3-0.4-0.3-1c0-0.8,0.6-1.4,1.6-1.4   L230.2,43.9L230.2,43.9z"></path>
	<path fill="#333333" d="M262.7,52.9c0,1-0.1,2-0.2,3c3.5-0.5,5.7-3.7,5.7-3.7c0.6,0,0.9,0.5,0.9,1.2c-0.3,1.7-3.3,4.2-7,4.7   c-1.6,5.6-6,9.5-12.4,9.5c-5,0-8.7-3.2-8.7-9c0-8.6,5-14.6,13.1-14.6C259.5,43.9,262.7,47.5,262.7,52.9z M256.6,49.8   c-0.2-2.4-1.3-3.6-3.1-3.6c-2.4,0-4.8,2.4-6.1,9.5c-0.2,1.2-0.4,3.7-0.4,4.9c0,3,1.1,4.6,3.1,4.6c2.6,0,4.7-2.7,5.9-8.4   c-1.2-0.9-1.8-2.2-1.8-3.7C254.2,51.4,255,50.2,256.6,49.8z"></path>
	<path fill="#333333" d="M274.4,50.6c3-5.1,6.2-6.8,8.3-6.8c2.3,0,3.8,1.3,3.8,3.7c0,2.6-1.6,4.5-3.9,4.5c-1.2,0-2.1-0.3-2.1-0.3   s0.6-1.1,0.6-2.4c0-0.7-0.3-1-1-1c-0.8,0-1.8,0.6-3.4,2.8c-1.8,2.5-3.4,5.4-4.5,12.1c-0.5,2.8,0,3.8,0,3.8s-0.7,0.4-2.5,0.4   c-3.6,0-4.1-1.4-3.5-4.7l2.5-14.5c0.5-3,0-4.1,0-4.1s0.7-0.4,2.5-0.4c3.6,0,4.1,1.5,3.5,4.7L274.4,50.6z"></path>
</g>
</svg>
